<?xml version="1.0" encoding="UTF-8" standalone="no"?>
<!-- Created with Inkscape (http://www.inkscape.org/) -->

<svg
   width="100"
   height="22"
   viewBox="0 0 26.458333 5.8208335"
   version="1.1"
   id="svg1"
   inkscape:version="1.3 (0e150ed6c4, 2023-07-21)"
   sodipodi:docname="logo.svg"
   xmlns:inkscape="http://www.inkscape.org/namespaces/inkscape"
   xmlns:sodipodi="http://sodipodi.sourceforge.net/DTD/sodipodi-0.dtd"
   xmlns:xlink="http://www.w3.org/1999/xlink"
   xmlns="http://www.w3.org/2000/svg"
   xmlns:svg="http://www.w3.org/2000/svg">
  <sodipodi:namedview
     id="namedview1"
     pagecolor="#505050"
     bordercolor="#ffffff"
     borderopacity="1"
     inkscape:showpageshadow="0"
     inkscape:pageopacity="0"
     inkscape:pagecheckerboard="1"
     inkscape:deskcolor="#505050"
     inkscape:document-units="mm"
     showguides="false"
     inkscape:zoom="8"
     inkscape:cx="31.375"
     inkscape:cy="18.5625"
     inkscape:window-width="1920"
     inkscape:window-height="991"
     inkscape:window-x="-9"
     inkscape:window-y="-9"
     inkscape:window-maximized="1"
     inkscape:current-layer="layer1" />
  <defs
     id="defs1">
    <linearGradient
       id="linearGradient1"
       inkscape:collect="always">
      <stop
         style="stop-color:#00beff;stop-opacity:1;"
         offset="0"
         id="stop1" />
      <stop
         style="stop-color:#0023ff;stop-opacity:1;"
         offset="1"
         id="stop2" />
    </linearGradient>
    <linearGradient
       inkscape:collect="always"
       xlink:href="#linearGradient1"
       id="linearGradient2"
       x1="0.21724156"
       y1="3.0065221"
       x2="26.349955"
       y2="3.0065221"
       gradientUnits="userSpaceOnUse" />
  </defs>
  <g
     inkscape:label="Слой 1"
     inkscape:groupmode="layer"
     id="layer1">
    <g
       id="g1" />
    <path
       style="font-size:5.29167px;font-family:'Freestyle Script';-inkscape-font-specification:'Freestyle Script, Normal';stroke:#ffffff;stroke-width:0.85;stroke-linecap:round;stroke-linejoin:round;stroke-miterlimit:1.5;paint-order:stroke fill markers;fill:url(#linearGradient2);fill-opacity:1"
       d="M 2.5439354,2.6977552 Q 2.0116679,2.8062758 1.440643,3.0336522 1.4199724,3.0749934 1.3993018,3.1189184 1.0427342,3.8036315 0.91871068,4.4159976 0.89287244,4.5606917 0.80243863,4.5606917 q -0.0671794,0 -0.11885586,-0.067179 -0.0413412,-0.051676 -0.0413412,-0.1111044 0,-0.072347 0.0645956,-0.2997235 0.0645956,-0.2299602 0.1343588,-0.4030764 0.0258382,-0.064596 0.16278082,-0.3772382 0.03359,-0.074931 0.067179,-0.1576132 -0.05426,0.020671 -0.1498617,0.062012 -0.0413412,0.018087 -0.0749309,0.018087 -0.0800985,0 -0.0800985,-0.1214396 0,-0.080099 0.0671794,-0.1214397 0.0516765,-0.03359 0.18345149,-0.080099 0.1395264,-0.051676 0.2196249,-0.085266 0.051677,-0.090434 0.1963706,-0.3720706 0.025838,-0.051676 0.1731161,-0.2945558 0.4211632,-0.7079675 0.5477705,-1.007691 0.1162721,-0.27130146 0.1446941,-0.30747499 0.051677,-0.0671794 0.1240236,-0.0671794 0.1214396,0 0.1214396,0.11885586 0,0.27130143 -0.7389734,1.46502773 Q 1.6835223,2.5478935 1.6266782,2.6925876 L 1.7558694,2.656414 Q 2.2829693,2.5039685 2.7144678,2.3902803 3.0116074,1.8425097 3.4431059,1.1758834 q 0.074931,-0.1188559 0.08785,-0.147278 0.062012,-0.11110435 0.131775,-0.11110435 0.059428,0 0.098185,0.0490926 0.031006,0.0413412 0.031006,0.0904338 0,0.093018 -0.1007691,0.2661338 -0.023254,0.041341 -0.2118735,0.3307294 -0.3307293,0.5115969 -0.4159955,0.6847131 0.074931,-0.00775 0.1136882,-0.00775 0.2041221,0 0.2041221,0.1007691 0,0.062012 -0.064596,0.1214397 -0.049093,0.046509 -0.1085206,0.046509 H 3.1072089 q -0.062012,0 -0.1860353,0.023254 -0.5477705,0.9766852 -0.715719,1.7130748 -0.041341,0.1653647 -0.1291911,0.1653647 -0.067179,0 -0.1266074,-0.085266 -0.038757,-0.059428 -0.038757,-0.1266073 0,-0.248047 0.6330366,-1.5916351 z M 5.0760822,1.3464157 q -0.5167646,0.080098 -0.9585984,0.204122 -0.093018,0.03359 -0.1446941,0.03359 -0.059428,0 -0.1007691,-0.05426 -0.025838,-0.031006 -0.025838,-0.072347 0,-0.1111044 0.160197,-0.1627809 0.4289147,-0.1291911 1.0102749,-0.2377117 0.7286381,-0.13177498 1.4004321,-0.13177498 0.2273765,0 0.3048912,0.0284221 0.072347,0.0258382 0.072347,0.0981853 0,0.1214396 -0.1782838,0.1421102 -0.1550294,0.015503 -0.467672,0.023254 -0.6227014,0.020671 -0.8526616,0.077515 0.064596,0.025838 0.064596,0.080099 0,0.056844 -0.082682,0.1782838 Q 4.786694,2.2714244 4.3396926,3.183514 3.9986279,3.8759786 3.8410147,4.4134138 3.8048412,4.5761947 3.7169912,4.5761947 q -0.080098,0 -0.1343588,-0.082682 -0.036173,-0.05426 -0.036173,-0.1136882 0,-0.2377117 0.452169,-1.1575528 Q 4.2880161,2.6305758 4.5334793,2.2249156 4.6316646,2.0595509 5.006319,1.4575201 Z M 6.8304984,3.4806536 Q 6.9131807,3.3592139 7.2129042,2.8967096 7.4687027,2.5013847 8.0293923,1.7572436 8.354954,1.3257451 8.618504,1.0337731 8.7761172,0.85807312 8.8975569,0.85807312 q 0.069763,0 0.116272,0.0490926 0.041341,0.0387573 0.041341,0.0981852 0,0.08785 -0.1059367,0.2764691 Q 8.9285628,1.3205775 8.7373599,1.6564745 8.3962952,2.2610891 8.2748555,2.5194714 7.9415423,3.227439 7.7865129,3.7261168 7.6960791,4.0232565 7.6960791,4.162783 q 0,0.031006 0.00517,0.064596 0.012919,0.1007691 0.012919,0.1188559 0,0.074931 -0.056844,0.1395264 -0.049093,0.059428 -0.1111044,0.059428 -0.072347,0 -0.1188559,-0.085266 -0.038757,-0.064596 -0.038757,-0.1808676 0,-0.731222 1.2195645,-2.8732114 Q 7.9699644,2.0879729 7.1948174,3.3592139 7.0242851,3.635683 6.9131807,3.7338683 q -0.1085206,0.095601 -0.2067058,0.095601 -0.098185,0 -0.1446941,-0.085266 -0.031006,-0.056844 -0.031006,-0.131775 0,-0.6459558 0.7673955,-2.0334688 Q 7.0372042,1.8450936 6.7969087,2.1964935 6.3602425,2.8450331 6.0165941,3.5271625 5.8538132,3.855308 5.6212691,4.4030785 5.5049971,4.6821314 5.3525515,4.6821314 q -0.038757,0 -0.064596,-0.03359 -0.020671,-0.023254 -0.020671,-0.056844 0,-0.049093 0.095601,-0.2687176 Q 5.5670088,3.8398051 5.6755294,3.6279316 6.2310514,2.5453096 6.9906954,1.5918789 7.3085057,1.1939701 7.4299453,1.0751143 7.5565527,0.95367458 7.639235,0.95367458 q 0.051677,0 0.1007691,0.0465088 0.059428,0.05426 0.059428,0.1240235 0,0.077515 -0.1085206,0.2557985 Q 7.3808527,1.8864347 7.1198866,2.5168876 6.8950939,3.0853287 6.8304984,3.4806536 Z M 8.7141049,4.0697653 Q 8.7838681,4.0490947 8.8174578,4.0387594 9.414321,3.855308 9.6727033,3.855308 q 0.1937868,0 0.1937868,0.1446941 0,0.056844 -0.043925,0.1007691 -0.043925,0.043925 -0.098185,0.043925 -0.025838,0 -0.074931,-0.00775 -0.041341,-0.00775 -0.067179,-0.00775 -0.1524456,0 -0.4004926,0.069763 -0.090434,0.028422 -0.3488161,0.1446941 -0.1731162,0.077515 -0.2842206,0.077515 -0.080099,0 -0.1317749,-0.074931 -0.049093,-0.069763 -0.049093,-0.1472779 0,-0.095602 0.1059368,-0.3229779 Q 8.7967873,3.1731787 9.166274,2.6150729 9.6959577,1.8140877 9.9879297,1.4394333 10.068028,1.3386642 10.148127,1.2353113 10.274734,1.064779 10.367752,1.064779 q 0.04651,0 0.08268,0.036174 0.03359,0.036174 0.03359,0.074931 0,0.056844 -0.08785,0.1756999 -0.01809,0.023255 -0.214458,0.2816368 Q 9.8148136,2.116395 9.633946,2.3721935 9.4556622,2.627992 9.2515401,2.963889 8.8510475,3.6227639 8.7141049,4.0697653 Z m 1.5761321,0.038757 q 0.12144,0 0.12144,0.1524455 0,0.2351279 -0.260966,0.6149499 -0.105937,0.1550294 -0.2506313,0.2842206 -0.093018,0.085266 -0.1498617,0.085266 -0.05426,0 -0.08785,-0.049093 -0.023254,-0.031006 -0.023254,-0.072347 0,-0.056844 0.1111044,-0.1576132 0.315226,-0.3023074 0.369487,-0.7079676 0.01292,-0.074931 0.06976,-0.116272 0.05168,-0.03359 0.100769,-0.03359 z m 3.18327,-3.14451283 q 0.173117,0 0.266134,0.12402353 0.07493,0.098185 0.07493,0.2377117 0,0.2506309 -0.167948,0.5710249 -0.147278,0.2764691 -0.366903,0.4960941 -0.144694,0.1421103 -0.227377,0.1421103 -0.05426,0 -0.100769,-0.05426 -0.03359,-0.038757 -0.03359,-0.08785 0,-0.090434 0.157614,-0.2067059 0.222208,-0.1653647 0.353983,-0.3617352 0.193787,-0.2842206 0.193787,-0.4805911 0,-0.080099 -0.03617,-0.1188559 -0.03359,-0.038757 -0.103353,-0.038757 -0.142111,0 -0.403077,0.2067058 -0.297139,0.2325441 -0.627869,0.6330367 -0.421163,0.5090132 -0.640788,1.0025234 -0.227376,0.511597 -0.227376,0.8733322 0,0.1731162 0.100769,0.2945559 0.111104,0.1369426 0.271301,0.1369426 0.279053,0 0.7028,-0.4340823 0.126607,-0.131775 0.307475,-0.3824058 0.118856,-0.1601971 0.152446,-0.2273765 0.03876,-0.074931 0.09043,-0.074931 0.05685,0 0.05685,0.05426 0,0.1162721 -0.289389,0.5219323 -0.240295,0.3384808 -0.529683,0.5529382 -0.325562,0.2402955 -0.61495,0.2402955 -0.302308,0 -0.467672,-0.2713014 -0.105937,-0.1731162 -0.105937,-0.395325 0,-0.5581058 0.5271,-1.4081836 0.449585,-0.7234705 0.948263,-1.1653042 0.431499,-0.37982203 0.738973,-0.37982203 z m 0.426332,2.32544083 q 0.139526,0 0.139526,0.1136882 0,0.085266 -0.129191,0.1291912 -0.222209,0.080099 -0.222209,0.2868044 0,0.1653647 0.129191,0.2583823 0.111105,0.077515 0.281637,0.077515 0.341065,0 0.596863,-0.1989544 0.160197,-0.1266073 0.160197,-0.3203941 0,-0.1188558 -0.04651,-0.2144573 -0.04909,-0.098185 -0.149861,-0.248047 -0.15503,-0.2325441 -0.260967,-0.423747 -0.118855,-0.2118735 -0.118855,-0.4159956 0,-0.4831749 0.478007,-0.9043381 0.253215,-0.2196249 0.558106,-0.3565676 0.253214,-0.11110435 0.488342,-0.11110435 0.152446,0 0.258383,0.0800985 0.129191,0.095601 0.129191,0.2609661 0,0.2583823 -0.279053,0.5581058 -0.26355,0.2816367 -0.61495,0.4599205 -0.1757,0.08785 -0.266134,0.08785 -0.05943,0 -0.105937,-0.049093 -0.03101,-0.03359 -0.03101,-0.074931 0,-0.095601 0.170533,-0.1550294 0.312642,-0.1111044 0.552938,-0.3126426 0.310059,-0.2583823 0.310059,-0.452169 0,-0.074931 -0.06201,-0.1214397 -0.04909,-0.036174 -0.116272,-0.036174 -0.178284,0 -0.447001,0.1369427 -0.361736,0.1834514 -0.568442,0.4728396 -0.180867,0.2506309 -0.180867,0.4883426 0,0.1731161 0.0956,0.3565676 0.0801,0.1472779 0.204122,0.3333132 0.118856,0.1782838 0.201538,0.3307293 0.0956,0.1808677 0.0956,0.3384809 0,0.3048911 -0.348816,0.540019 -0.29714,0.1963706 -0.671794,0.1963706 -0.369487,0 -0.578777,-0.204122 -0.157613,-0.1550294 -0.157613,-0.3565676 0,-0.2247927 0.149862,-0.3772382 0.09043,-0.093018 0.214457,-0.1395265 0.08527,-0.03359 0.142111,-0.03359 z m 2.082561,0 q 0.139526,0 0.139526,0.1136882 0,0.085266 -0.129191,0.1291912 -0.222208,0.080099 -0.222208,0.2868044 0,0.1653647 0.129191,0.2583823 0.111104,0.077515 0.281636,0.077515 0.341065,0 0.596864,-0.1989544 0.160197,-0.1266073 0.160197,-0.3203941 0,-0.1188558 -0.04651,-0.2144573 -0.04909,-0.098185 -0.149862,-0.248047 -0.155029,-0.2325441 -0.260966,-0.423747 -0.118856,-0.2118735 -0.118856,-0.4159956 0,-0.4831749 0.478007,-0.9043381 0.253215,-0.2196249 0.558106,-0.3565676 0.253215,-0.11110435 0.488343,-0.11110435 0.152445,0 0.258382,0.0800985 0.129191,0.095601 0.129191,0.2609661 0,0.2583823 -0.279053,0.5581058 -0.26355,0.2816367 -0.61495,0.4599205 -0.1757,0.08785 -0.266133,0.08785 -0.05943,0 -0.105937,-0.049093 -0.03101,-0.03359 -0.03101,-0.074931 0,-0.095601 0.170532,-0.1550294 0.312643,-0.1111044 0.552938,-0.3126426 0.310059,-0.2583823 0.310059,-0.452169 0,-0.074931 -0.06201,-0.1214397 -0.04909,-0.036174 -0.116272,-0.036174 -0.178283,0 -0.447001,0.1369427 -0.361735,0.1834514 -0.568441,0.4728396 -0.180868,0.2506309 -0.180868,0.4883426 0,0.1731161 0.0956,0.3565676 0.0801,0.1472779 0.204122,0.3333132 0.118856,0.1782838 0.201538,0.3307293 0.0956,0.1808677 0.0956,0.3384809 0,0.3048911 -0.348816,0.540019 -0.297139,0.1963706 -0.671794,0.1963706 -0.369486,0 -0.578776,-0.204122 -0.157613,-0.1550294 -0.157613,-0.3565676 0,-0.2247927 0.149861,-0.3772382 0.09043,-0.093018 0.214458,-0.1395265 0.08527,-0.03359 0.14211,-0.03359 z m 3.255616,-0.7415572 q 0.04393,0.3746543 0.07235,0.5348514 0.03101,0.1782838 0.129192,0.6020308 0.266133,-0.3927412 0.320394,-0.687297 -0.06718,-0.00517 -0.08785,-0.00775 -0.142111,-0.00517 -0.183452,-0.03359 -0.05168,-0.036174 -0.05168,-0.1059367 0,-0.062012 0.03359,-0.1007691 0.04134,-0.046509 0.108521,-0.046509 0.02325,0 0.126607,0.00775 0.02067,0.00258 0.03876,0.00258 0.186035,0 0.604614,-0.062012 0.136943,-0.020671 0.271302,-0.020671 0.245463,0 0.245463,0.1705323 0,0.1111044 -0.09302,0.1111044 -0.04393,0 -0.144694,-0.020671 -0.05168,-0.012919 -0.116272,-0.012919 -0.129191,0 -0.537435,0.082682 -0.04392,0.2196249 -0.165365,0.5012617 -0.136942,0.3074749 -0.279053,0.4702558 0.07752,0.1369426 0.131775,0.1963705 0.111105,0.1240236 0.291972,0.1240236 0.08785,0 0.180868,-0.023254 0.103353,-0.023255 0.160197,-0.023255 0.0956,0 0.0956,0.095602 0,0.085266 -0.118855,0.1446941 -0.1757,0.08785 -0.38499,0.08785 -0.341065,0 -0.565857,-0.3617353 Q 18.97705,4.49868 18.656656,4.49868 q -0.364319,0 -0.578776,-0.2997235 -0.147278,-0.2041221 -0.147278,-0.4960941 0,-0.364319 0.217041,-0.6743778 0.224793,-0.3152264 0.808737,-0.5658573 -0.02067,-0.1679485 -0.02067,-0.291972 0,-0.2816367 0.0801,-0.4935102 0.07493,-0.2041221 0.258382,-0.3436485 0.167948,-0.1266074 0.361735,-0.1266074 0.160197,0 0.266134,0.1136883 0.113688,0.1188558 0.113688,0.2842205 0,0.2247926 -0.157613,0.4625044 -0.118856,0.1731161 -0.421163,0.3617352 -0.03617,0.020671 -0.198955,0.1188559 z m -0.02067,-0.1989544 q 0.206706,-0.1162721 0.328145,-0.2351279 0.198955,-0.1989544 0.198955,-0.3849897 0,-0.095601 -0.05168,-0.1627808 -0.04909,-0.064596 -0.124023,-0.064596 -0.157614,0 -0.273886,0.1834514 -0.09043,0.1446941 -0.09043,0.4702558 0,0.049093 0.01292,0.1937868 z m -0.24288,0.3307294 q -0.232544,0.1085205 -0.392741,0.2532146 -0.356567,0.3203941 -0.356567,0.6924646 0,0.2273765 0.121439,0.3875735 0.129191,0.1731162 0.372071,0.1731162 0.250631,0 0.509013,-0.26355 -0.0956,-0.2325441 -0.167949,-0.6252852 -0.04909,-0.3669029 -0.08527,-0.6175337 z m 4.648299,-1.462444 q -0.454753,1.1782234 -0.855246,1.8939424 -0.400492,0.7105514 -0.780314,1.0206102 -0.312643,0.2506308 -0.586528,0.2506308 -0.227377,0 -0.353984,-0.2067058 -0.09819,-0.1601971 -0.09819,-0.3539838 0,-0.4340823 0.250631,-0.9069219 0.157613,-0.2945559 0.40566,-0.5245161 0.118856,-0.1111044 0.173116,-0.1111044 0.03617,0 0.06718,0.038757 0.02067,0.025838 0.02067,0.059428 0,0.038757 -0.139526,0.219625 -0.475424,0.6227014 -0.475424,1.1291307 0,0.1550294 0.06718,0.2713015 0.07493,0.1266073 0.211874,0.1266073 0.271301,0 0.591695,-0.4728396 0.408245,-0.599447 0.860414,-1.5942189 0.214457,-0.4754235 0.330729,-0.7984014 -0.496094,0.095602 -0.689881,0.1731162 -0.08527,0.03359 -0.136942,0.03359 -0.05426,0 -0.0956,-0.051676 -0.02584,-0.03359 -0.02584,-0.080099 0,-0.1085206 0.147278,-0.1627809 0.625285,-0.23254406 1.348755,-0.23254406 0.206706,0 0.286805,0.0361735 0.07752,0.0361735 0.07752,0.11110444 0,0.1369426 -0.180868,0.1369426 -0.05168,0 -0.139527,-0.00517 -0.08785,-0.00258 -0.147277,-0.00258 -0.04393,0 -0.134359,0.00258 z m 0.01034,2.0722262 q 0.139526,0 0.139526,0.1136882 0,0.085266 -0.129191,0.1291912 -0.222209,0.080099 -0.222209,0.2868044 0,0.1653647 0.129191,0.2583823 0.111105,0.077515 0.281637,0.077515 0.341065,0 0.596863,-0.1989544 0.160197,-0.1266073 0.160197,-0.3203941 0,-0.1188558 -0.04651,-0.2144573 -0.04909,-0.098185 -0.149861,-0.248047 -0.15503,-0.2325441 -0.260967,-0.423747 -0.118855,-0.2118735 -0.118855,-0.4159956 0,-0.4831749 0.478007,-0.9043381 0.253215,-0.2196249 0.558106,-0.3565676 0.253214,-0.11110435 0.488342,-0.11110435 0.152446,0 0.258383,0.0800985 0.129191,0.095601 0.129191,0.2609661 0,0.2583823 -0.279053,0.5581058 -0.26355,0.2816367 -0.61495,0.4599205 -0.1757,0.08785 -0.266134,0.08785 -0.05943,0 -0.105937,-0.049093 -0.03101,-0.03359 -0.03101,-0.074931 0,-0.095601 0.170532,-0.1550294 0.312642,-0.1111044 0.552938,-0.3126426 0.310059,-0.2583823 0.310059,-0.452169 0,-0.074931 -0.06201,-0.1214397 -0.04909,-0.036174 -0.116272,-0.036174 -0.178284,0 -0.447001,0.1369427 -0.361736,0.1834514 -0.568442,0.4728396 -0.180867,0.2506309 -0.180867,0.4883426 0,0.1731161 0.0956,0.3565676 0.0801,0.1472779 0.204122,0.3333132 0.118856,0.1782838 0.201539,0.3307293 0.0956,0.1808677 0.0956,0.3384809 0,0.3048911 -0.348816,0.540019 -0.29714,0.1963706 -0.671794,0.1963706 -0.369487,0 -0.578777,-0.204122 -0.157613,-0.1550294 -0.157613,-0.3565676 0,-0.2247927 0.149862,-0.3772382 0.09043,-0.093018 0.214457,-0.1395265 0.08527,-0.03359 0.142111,-0.03359 z"
       id="text2"
       transform="rotate(0.0759193)"
       aria-label="HTML,CSS&amp;JS" />
  </g>
</svg>
